<svg width="1600" height="420" viewBox="0 0 1600 420" fill="none" xmlns="http://www.w3.org/2000/svg">
  <defs>
    <linearGradient id="bg" x1="0" y1="0" x2="1600" y2="420" gradientUnits="userSpaceOnUse">
      <stop offset="0" stop-color="#0F172A"/>
      <stop offset="0.55" stop-color="#1E293B"/>
      <stop offset="1" stop-color="#0B3B2E"/>
    </linearGradient>
    <linearGradient id="accent" x1="1070" y1="70" x2="1470" y2="320" gradientUnits="userSpaceOnUse">
      <stop offset="0" stop-color="#22C55E"/>
      <stop offset="1" stop-color="#14B8A6"/>
    </linearGradient>
    <filter id="soft" x="-20%" y="-20%" width="140%" height="140%">
      <feGaussianBlur stdDeviation="16"/>
    </filter>
  </defs>

  <rect width="1600" height="420" rx="24" fill="url(#bg)"/>

  <circle cx="156" cy="90" r="78" fill="#22C55E" opacity="0.24" filter="url(#soft)"/>
  <circle cx="1290" cy="340" r="120" fill="#14B8A6" opacity="0.18" filter="url(#soft)"/>

  <path d="M0 320C220 260 430 360 650 300C860 240 1050 150 1320 210C1430 235 1515 240 1600 220V420H0V320Z" fill="#0E1D2D" opacity="0.55"/>

  <g opacity="0.22">
    <path d="M760 70H1520" stroke="#94A3B8"/>
    <path d="M760 130H1520" stroke="#94A3B8"/>
    <path d="M760 190H1520" stroke="#94A3B8"/>
    <path d="M760 250H1520" stroke="#94A3B8"/>
    <path d="M760 310H1520" stroke="#94A3B8"/>
  </g>

  <text x="80" y="126" fill="#F8FAFC" font-family="Segoe UI, Arial, sans-serif" font-size="52" font-weight="700">PIT DE VENDAS</text>
  <text x="80" y="170" fill="#CBD5E1" font-family="Segoe UI, Arial, sans-serif" font-size="24">Pipeline com foco em conversao e receita recorrente</text>
  <text x="80" y="202" fill="#94A3B8" font-family="Segoe UI, Arial, sans-serif" font-size="18">Leads qualificados -> propostas -> fechamento</text>

  <g transform="translate(86 248)">
    <rect x="0" y="0" width="126" height="80" rx="14" fill="#1D4ED8" opacity="0.92"/>
    <rect x="146" y="12" width="112" height="68" rx="14" fill="#2563EB" opacity="0.92"/>
    <rect x="278" y="24" width="98" height="56" rx="14" fill="#0284C7" opacity="0.92"/>
    <rect x="396" y="36" width="88" height="44" rx="14" fill="#0EA5E9" opacity="0.92"/>
    <text x="16" y="45" fill="#EFF6FF" font-family="Segoe UI, Arial, sans-serif" font-size="18" font-weight="600">Leads</text>
    <text x="164" y="48" fill="#E0F2FE" font-family="Segoe UI, Arial, sans-serif" font-size="16" font-weight="600">MQL</text>
    <text x="300" y="52" fill="#E0F2FE" font-family="Segoe UI, Arial, sans-serif" font-size="16" font-weight="600">SQL</text>
    <text x="412" y="62" fill="#E0F2FE" font-family="Segoe UI, Arial, sans-serif" font-size="14" font-weight="700">Deal</text>
  </g>

  <g>
    <rect x="770" y="92" width="750" height="248" rx="16" fill="#0F2434" opacity="0.76" stroke="#334155"/>

    <path d="M820 302L930 258L1012 276L1110 218L1208 228L1338 132L1462 154" stroke="url(#accent)" stroke-width="7" stroke-linecap="round" stroke-linejoin="round"/>
    <circle cx="930" cy="258" r="8" fill="#22C55E"/>
    <circle cx="1110" cy="218" r="8" fill="#22C55E"/>
    <circle cx="1338" cy="132" r="10" fill="#22C55E"/>

    <g opacity="0.9">
      <rect x="820" y="126" width="168" height="64" rx="12" fill="#123047"/>
      <text x="842" y="152" fill="#93C5FD" font-family="Segoe UI, Arial, sans-serif" font-size="14">Ticket medio</text>
      <text x="842" y="176" fill="#F8FAFC" font-family="Segoe UI, Arial, sans-serif" font-size="22" font-weight="700">R$ 12.400</text>

      <rect x="1008" y="110" width="168" height="64" rx="12" fill="#123047"/>
      <text x="1030" y="136" fill="#6EE7B7" font-family="Segoe UI, Arial, sans-serif" font-size="14">Conversao</text>
      <text x="1030" y="160" fill="#F8FAFC" font-family="Segoe UI, Arial, sans-serif" font-size="22" font-weight="700">34,8%</text>

      <rect x="1196" y="96" width="220" height="70" rx="12" fill="#123047"/>
      <text x="1218" y="124" fill="#5EEAD4" font-family="Segoe UI, Arial, sans-serif" font-size="14">Receita projetada</text>
      <text x="1218" y="150" fill="#F8FAFC" font-family="Segoe UI, Arial, sans-serif" font-size="24" font-weight="700">R$ 1,9 mi</text>
    </g>
  </g>
</svg>
